<?xml version="1.0" encoding="utf-8"?>
<!-- Generator: Adobe Illustrator 17.0.0, SVG Export Plug-In . SVG Version: 6.00 Build 0)  -->
<!DOCTYPE svg PUBLIC "-//W3C//DTD SVG 1.1//EN" "http://www.w3.org/Graphics/SVG/1.1/DTD/svg11.dtd">
<svg version="1.1" id="Layer_1" xmlns="http://www.w3.org/2000/svg" xmlns:xlink="http://www.w3.org/1999/xlink" x="0px" y="0px"
	 width="200px" height="200px" viewBox="0 0 200 200" enable-background="new 0 0 200 200" xml:space="preserve">
<rect fill="#26B99A" width="50" height="50"/>
<rect x="50" fill="#4FBA6F" width="50" height="50"/>
<rect y="50" fill="#14A085" width="50" height="50"/>
<rect x="50" y="50" fill="#24AE5F" width="50" height="50"/>
<rect x="100" y="50" fill="#2980BA" width="50" height="50"/>
<rect x="150" y="50" fill="#894B9D" width="50" height="50"/>
<rect x="100" fill="#3B97D3" width="50" height="50"/>
<rect x="150" fill="#955BA5" width="50" height="50"/>
<rect y="100" fill="#F0C419" width="50" height="50"/>
<rect x="50" y="100" fill="#E57E25" width="50" height="50"/>
<rect y="150" fill="#F29C1F" width="50" height="50"/>
<rect x="50" y="150" fill="#D25627" width="50" height="50"/>
<rect x="100" y="150" fill="#C03A2B" width="50" height="50"/>
<rect x="150" y="150" fill="#BDC3C7" width="50" height="50"/>
<rect x="100" y="100" fill="#E64C3C" width="50" height="50"/>
<rect x="150" y="100" fill="#ECF0F1" width="50" height="50"/>
</svg>
