<?xml version="1.0" encoding="utf-8"?>
<!-- Generator: Adobe Illustrator 17.0.0, SVG Export Plug-In . SVG Version: 6.00 Build 0)  -->
<!DOCTYPE svg PUBLIC "-//W3C//DTD SVG 1.1//EN" "http://www.w3.org/Graphics/SVG/1.1/DTD/svg11.dtd">
<svg version="1.1" xmlns="http://www.w3.org/2000/svg" xmlns:xlink="http://www.w3.org/1999/xlink" x="0px" y="0px" width="200px"
	 height="200px" viewBox="0 0 200 200" enable-background="new 0 0 200 200" xml:space="preserve">
<g id="ink_x5F_items">
	<g>
		
			<rect x="156.811" y="19.189" transform="matrix(0.7071 -0.7071 0.7071 0.7071 19.3898 125.1888)" fill="#E64C3C" width="8" height="40"/>
		<polygon fill="#E64C3C" points="42.017,149.497 32.118,159.397 40.603,167.882 50.503,157.983 64.645,155.154 44.846,135.355 		
			"/>
	</g>
</g>
<g id="pen_x5F_items">
	
		<rect x="86.021" y="22.979" transform="matrix(0.7071 0.7071 -0.7071 0.7071 95.0208 -53.4422)" fill="#BCBEC0" width="52" height="130"/>
	<polygon fill="#FFFFFF" points="51.917,119.799 46.26,125.456 50.503,129.698 44.846,135.355 64.645,155.154 70.302,149.497 
		74.544,153.74 80.201,148.083 	"/>
	
		<rect x="149.74" y="28.118" transform="matrix(0.7071 0.7071 -0.7071 0.7071 67.7401 -99.3036)" opacity="0.5" fill="#FFFFFF" width="8" height="8"/>
	
		<rect x="98.121" y="13.08" transform="matrix(0.7071 0.7071 -0.7071 0.7071 85.1213 -49.3417)" fill="#E6E7E8" width="8" height="130"/>
	<polygon opacity="0.5" fill="#BCBEC0" points="50.503,157.983 42.017,149.497 44.846,135.355 64.645,155.154 	"/>
	
		<rect x="49.958" y="118.042" transform="matrix(0.7071 0.7071 -0.7071 0.7071 109.9584 -17.3797)" opacity="0.5" fill="#808285" width="52" height="12"/>
	
		<rect x="122.083" y="45.917" transform="matrix(0.7071 0.7071 -0.7071 0.7071 80.0833 -89.5046)" opacity="0.5" fill="#808285" width="52" height="12"/>
</g>
</svg>
