<?xml version="1.0" encoding="utf-8"?>
<!-- Generator: Adobe Illustrator 17.0.0, SVG Export Plug-In . SVG Version: 6.00 Build 0)  -->
<!DOCTYPE svg PUBLIC "-//W3C//DTD SVG 1.1//EN" "http://www.w3.org/Graphics/SVG/1.1/DTD/svg11.dtd">
<svg version="1.1" xmlns="http://www.w3.org/2000/svg" xmlns:xlink="http://www.w3.org/1999/xlink" x="0px" y="0px" width="200px"
	 height="200px" viewBox="0.5 200.5 200 200" enable-background="new 0.5 200.5 200 200" xml:space="preserve">
<g id="Layer_1" display="none">
	<path display="inline" fill="#999999" d="M144,160c0,1.105-0.895,2-2,2H58c-1.105,0-2-0.895-2-2V76h-8v89c0,2.762,2.238,5,5,5h94
		c2.762,0,5-2.238,5-5V76h-8V160L144,160z"/>
	<rect x="96" y="76" display="inline" fill="#999999" width="8" height="72"/>
	<rect x="72" y="76" display="inline" fill="#999999" width="8" height="72"/>
	<rect x="120" y="76" display="inline" fill="#999999" width="8" height="72"/>
	<path display="inline" fill="#999999" d="M157,44h-37V33c0-1.657-1.343-3-3-3H83c-1.657,0-3,1.343-3,3v11H43c-1.657,0-3,1.343-3,3
		v18c0,1.657,1.343,3,3,3h114c1.657,0,3-1.343,3-3V47C160,45.343,158.657,44,157,44z M86,37c0-0.552,0.448-1,1-1h26
		c0.552,0,1,0.448,1,1v7H86V37z M154,61c0,0.552-0.448,1-1,1H47c-0.552,0-1-0.448-1-1V51c0-0.552,0.448-1,1-1h106
		c0.552,0,1,0.448,1,1V61L154,61z"/>
</g>
<g id="Layer_2">
	<g>
		<path fill="#999999" d="M139.786,277.286v77.679c0,0.493-0.4,0.893-0.893,0.893H62.107c-0.493,0-0.893-0.4-0.893-0.893v-77.679
			h-5.357v79.464c0,2.466,1.999,4.464,4.464,4.464h80.357c2.466,0,4.464-1.999,4.464-4.464v-79.464H139.786z"/>
		<rect x="77.286" y="277.286" fill="#999999" width="5.357" height="67.857"/>
		<rect x="97.821" y="277.286" fill="#999999" width="5.357" height="67.857"/>
		<rect x="118.357" y="277.286" fill="#999999" width="5.357" height="67.857"/>
		<path fill="#999999" d="M146.036,250.5H54.964c-2.466,0-4.464,1.999-4.464,4.464v13.393h5.357V256.75
			c0-0.493,0.4-0.893,0.893-0.893h87.5c0.493,0,0.893,0.4,0.893,0.893v11.607h5.357v-13.393
			C150.5,252.499,148.501,250.5,146.036,250.5z"/>
		<rect x="50.5" y="266.571" fill="#999999" width="100" height="5.357"/>
		<path fill="#999999" d="M113.893,239.786H87.107c-2.466,0-4.464,1.999-4.464,4.464v6.25H88v-4.464c0-0.493,0.4-0.893,0.893-0.893
			h23.214c0.493,0,0.893,0.4,0.893,0.893v4.464h5.357v-6.25C118.357,241.784,116.358,239.786,113.893,239.786z"/>
	</g>
</g>
</svg>
