<?xml version="1.0" encoding="UTF-8" standalone="no"?>
<!-- Created with Inkscape (http://www.inkscape.org/) -->

<svg
   xmlns:dc="http://purl.org/dc/elements/1.1/"
   xmlns:cc="http://creativecommons.org/ns#"
   xmlns:rdf="http://www.w3.org/1999/02/22-rdf-syntax-ns#"
   xmlns:svg="http://www.w3.org/2000/svg"
   xmlns="http://www.w3.org/2000/svg"
   version="1.1"
   width="200"
   height="200"
   viewBox="0 0 200 200"
   id="Layer_1"
   xml:space="preserve"><metadata
   id="metadata3045"><rdf:RDF><cc:Work
       rdf:about=""><dc:format>image/svg+xml</dc:format><dc:type
         rdf:resource="http://purl.org/dc/dcmitype/StillImage" /><dc:title></dc:title></cc:Work></rdf:RDF></metadata><defs
   id="defs3043">
	
	
	
	
	
	
	
	
	
	
	
</defs>
<rect
   width="12.222"
   height="4.5840001"
   x="45.5"
   y="44.5"
   id="rect3019"
   style="fill:#a6a8ab" /><polygon
   points="94.389,44.5 94.389,49.084 102.028,49.084 102.028,56.722 106.611,56.722 106.611,49.084 106.611,44.5 "
   transform="translate(-48.889,0)"
   id="polygon3021"
   style="fill:#a6a8ab" /><rect
   width="4.5840001"
   height="12.222"
   x="45.5"
   y="44.5"
   id="rect3023"
   style="fill:#a6a8ab" /><polygon
   points="57.722,105.611 57.722,101.028 50.084,101.028 50.084,93.389 45.5,93.389 45.5,105.611 50.084,105.611 "
   transform="translate(0,-48.889)"
   id="polygon3025"
   style="fill:#a6a8ab" /><polygon
   points="57.722,49.084 57.722,44.5 45.5,44.5 45.5,56.722 50.084,56.722 50.084,49.084 "
   id="polygon3027"
   style="fill:#a6a8ab" /><rect
   width="12.222"
   height="4.5840001"
   x="143.278"
   y="149.916"
   id="rect3029"
   style="fill:#a6a8ab" /><polygon
   points="98.972,149.916 98.972,142.278 94.389,142.278 94.389,154.5 106.611,154.5 106.611,149.916 "
   transform="translate(48.889,4.7683716e-7)"
   id="polygon3031"
   style="fill:#a6a8ab" /><polygon
   points="150.916,142.278 150.916,149.916 143.278,149.916 143.278,154.5 155.5,154.5 155.5,142.278 "
   id="polygon3033"
   style="fill:#a6a8ab" /><rect
   width="4.5840001"
   height="12.222"
   x="150.916"
   y="142.278"
   id="rect3035"
   style="fill:#a6a8ab" /><polygon
   points="155.5,105.611 155.5,93.389 150.916,93.389 143.278,93.389 143.278,97.972 150.916,97.972 150.916,105.611 "
   transform="translate(4.7683716e-7,48.889)"
   id="polygon3037"
   style="fill:#a6a8ab" /><rect
   width="61.111"
   height="61.111"
   x="45.5"
   y="44.5"
   id="rect3039"
   style="fill:#a6a8ab" />
<rect
   width="61.111"
   height="61.111"
   x="94.389"
   y="93.389"
   id="rect3039-1"
   style="fill:#a6a8ab" /></svg>