<?xml version="1.0" encoding="utf-8"?>
<!-- Generator: Adobe Illustrator 17.0.0, SVG Export Plug-In . SVG Version: 6.00 Build 0)  -->
<!DOCTYPE svg PUBLIC "-//W3C//DTD SVG 1.1//EN" "http://www.w3.org/Graphics/SVG/1.1/DTD/svg11.dtd">
<svg version="1.1" id="Layer_1" xmlns="http://www.w3.org/2000/svg" xmlns:xlink="http://www.w3.org/1999/xlink" x="0px" y="0px"
	 width="200px" height="200px" viewBox="0 0 200 200" enable-background="new 0 0 200 200" xml:space="preserve">
<g>
	<rect x="64.389" y="34.5" fill="#A6A8AB" width="14.444" height="5.417"/>
	<polygon fill="#A6A8AB" points="102.306,48.944 107.722,48.944 107.722,39.917 107.722,34.5 93.278,34.5 93.278,39.917 
		102.306,39.917 	"/>
	<rect x="35.5" y="63.389" fill="#A6A8AB" width="5.417" height="14.444"/>
	<polygon fill="#A6A8AB" points="40.917,92.278 35.5,92.278 35.5,106.722 40.917,106.722 49.944,106.722 49.944,101.306 
		40.917,101.306 	"/>
	<polygon fill="#A6A8AB" points="35.5,48.944 40.917,48.944 40.917,39.917 49.944,39.917 49.944,34.5 35.5,34.5 	"/>
	<rect x="122.167" y="159.083" fill="#A6A8AB" width="14.444" height="5.417"/>
	<polygon fill="#A6A8AB" points="98.694,150.056 93.278,150.056 93.278,164.5 107.722,164.5 107.722,159.083 98.694,159.083 	"/>
	<polygon fill="#A6A8AB" points="160.083,159.083 151.056,159.083 151.056,164.5 165.5,164.5 165.5,150.056 160.083,150.056 	"/>
	<rect x="160.083" y="121.167" fill="#A6A8AB" width="5.417" height="14.444"/>
	<polygon fill="#A6A8AB" points="160.083,92.278 151.056,92.278 151.056,97.694 160.083,97.694 160.083,106.722 165.5,106.722 
		165.5,92.278 	"/>
	<rect x="64.389" y="63.389" fill="#A6A8AB" width="72.222" height="72.222"/>
</g>
</svg>
