<?xml version="1.0" encoding="UTF-8" standalone="no"?>
<!-- Created with Inkscape (http://www.inkscape.org/) -->

<svg
   xmlns:dc="http://purl.org/dc/elements/1.1/"
   xmlns:cc="http://creativecommons.org/ns#"
   xmlns:rdf="http://www.w3.org/1999/02/22-rdf-syntax-ns#"
   xmlns:svg="http://www.w3.org/2000/svg"
   xmlns="http://www.w3.org/2000/svg"
   xmlns:sodipodi="http://sodipodi.sourceforge.net/DTD/sodipodi-0.dtd"
   xmlns:inkscape="http://www.inkscape.org/namespaces/inkscape"
   width="200"
   height="200"
   id="svg2"
   version="1.1"
   inkscape:version="0.48.4 r9939"
   sodipodi:docname="icon_pan.svg">
  <defs
     id="defs4" />
  <sodipodi:namedview
     id="base"
     pagecolor="#ffffff"
     bordercolor="#666666"
     borderopacity="1.0"
     inkscape:pageopacity="0.0"
     inkscape:pageshadow="2"
     inkscape:zoom="3.1267216"
     inkscape:cx="234.27294"
     inkscape:cy="46.325403"
     inkscape:document-units="px"
     inkscape:current-layer="text2989"
     showgrid="false"
     inkscape:window-width="1080"
     inkscape:window-height="1857"
     inkscape:window-x="-8"
     inkscape:window-y="-8"
     inkscape:window-maximized="1" />
  <metadata
     id="metadata7">
    <rdf:RDF>
      <cc:Work
         rdf:about="">
        <dc:format>image/svg+xml</dc:format>
        <dc:type
           rdf:resource="http://purl.org/dc/dcmitype/StillImage" />
        <dc:title />
      </cc:Work>
    </rdf:RDF>
  </metadata>
  <g
     inkscape:label="Layer 1"
     inkscape:groupmode="layer"
     id="layer1"
     transform="translate(0,-852.36218)">
    <g
       style="font-size:40px;font-style:normal;font-weight:normal;line-height:125%;letter-spacing:0px;word-spacing:0px;fill:#000000;fill-opacity:1;stroke:none;font-family:Sans"
       id="text2989">
      <path
         style="fill:none;stroke:#a7a9ac;stroke-width:1px;stroke-linecap:butt;stroke-linejoin:miter;stroke-opacity:1"
         d="m 21.785714,30.357143 c 1.390351,19.525459 -0.357143,39.201241 -0.357143,58.571428"
         id="path3077"
         inkscape:connector-curvature="0"
         transform="translate(0,852.36218)" />
      <path
         style="fill:none;stroke:#a7a9ac;stroke-width:1px;stroke-linecap:butt;stroke-linejoin:miter;stroke-opacity:1"
         d="m 16.071429,33.214286 c 11.669616,-14.071639 41.553071,-9.3775 45.357142,9.642857 3.38054,16.902698 -26.52197,23.767034 -38.214285,21.428571"
         id="path3079"
         inkscape:connector-curvature="0"
         transform="translate(0,852.36218)" />
      <path
         style="fill:none;stroke:#a7a9ac;stroke-width:1px;stroke-linecap:butt;stroke-linejoin:miter;stroke-opacity:1"
         d="M 57.857143,100.35714 C 61.44493,80.936165 68.906826,62.273328 72.142857,42.857143 72.377406,41.44985 74.023815,33.571429 75,33.571429 c 1.719803,0 4.90836,11.265847 5.357143,12.5 6.298011,17.319531 14.013671,35.425498 17.5,52.857142"
         id="path3081"
         inkscape:connector-curvature="0"
         transform="translate(0,852.36218)" />
      <path
         style="fill:none;stroke:#a7a9ac;stroke-width:1px;stroke-linecap:butt;stroke-linejoin:miter;stroke-opacity:1"
         d="M 96.071429,68.928571 C 86.592362,66.072 75.369581,71.288202 67.142857,69.642857"
         id="path3083"
         inkscape:connector-curvature="0"
         transform="translate(0,852.36218)" />
      <path
         style="fill:none;stroke:#a7a9ac;stroke-width:1px;stroke-linecap:butt;stroke-linejoin:miter;stroke-opacity:1"
         d="m 117.5,94.642857 c 0.56488,-6.165286 0.35714,-12.381713 0.35714,-18.571428 0,-3.597741 -0.35714,-7.101878 -0.35714,-10.714286 0,-55.9895444 12.16639,4.689927 21.78571,23.928571 0.54504,1.090065 6.51069,13.846466 6.78572,13.571426 2.9599,-2.9599 3.55425,-13.468367 4.28571,-17.85714 0.5152,-3.091181 0.95214,-6.188859 1.42857,-9.285714 0.83092,-5.400939 1.96097,-10.694367 2.85715,-16.071429 1.44126,-8.64755 3.3482,-17.45532 5,-25.714286"
         id="path3085"
         inkscape:connector-curvature="0"
         transform="translate(0,852.36218)" />
      <path
         style="fill:none;stroke:#a7a9ac;stroke-width:1px;stroke-linecap:butt;stroke-linejoin:miter;stroke-opacity:1"
         d="m 33.470139,969.81758 c 0.431503,16.84641 2.261495,33.81702 2.261495,50.65752"
         id="path3169"
         inkscape:connector-curvature="0" />
      <path
         style="fill:none;stroke:#a7a9ac;stroke-width:1px;stroke-linecap:butt;stroke-linejoin:miter;stroke-opacity:1"
         d="m 50.431357,968.68684 c -12.454701,0.21243 -25.295679,4.97529 -37.088532,4.97529"
         id="path3171"
         inkscape:connector-curvature="0" />
      <path
         style="fill:none;stroke:#a7a9ac;stroke-width:1px;stroke-linecap:butt;stroke-linejoin:miter;stroke-opacity:1"
         d="m 51.109806,986.3265 c 17.43724,-37.26372 59.874334,5.82163 40.933075,32.3394 -9.188696,12.8642 -31.235948,-2.7957 -34.827036,-13.569 -2.302509,-6.90751 -2.488739,-15.37268 -1.130748,-22.16264"
         id="path3173"
         inkscape:connector-curvature="0" />
      <path
         style="fill:none;stroke:#a7a9ac;stroke-width:1px;stroke-linecap:butt;stroke-linejoin:miter;stroke-opacity:1"
         d="m 93.852078,984.06501 c 5.522536,-6.18624 14.399442,-12.66438 23.067252,-12.66438 21.74174,0 38.1745,37.35557 15.37818,47.71757 -22.79261,10.3603 -47.301584,-24.61399 -29.6256,-42.28998"
         id="path3175"
         inkscape:connector-curvature="0" />
      <path
         style="fill:none;stroke:#a7a9ac;stroke-width:1px;stroke-linecap:butt;stroke-linejoin:miter;stroke-opacity:1"
         d="m 157.17396,965.52074 c 2.39932,8.73131 -6.5582,60.38206 -4.07069,62.86956 0.35542,0.3554 31.18743,-4.0707 35.50548,-4.0707"
         id="path3177"
         inkscape:connector-curvature="0" />
    </g>
  </g>
</svg>
