<?xml version="1.0" encoding="utf-8"?>
<!-- Generator: Adobe Illustrator 17.0.0, SVG Export Plug-In . SVG Version: 6.00 Build 0)  -->
<!DOCTYPE svg PUBLIC "-//W3C//DTD SVG 1.1//EN" "http://www.w3.org/Graphics/SVG/1.1/DTD/svg11.dtd">
<svg version="1.1" id="Layer_1" xmlns="http://www.w3.org/2000/svg" xmlns:xlink="http://www.w3.org/1999/xlink" x="0px" y="0px"
	 width="200px" height="200px" viewBox="0 0 200 200" enable-background="new 0 0 200 200" xml:space="preserve">
<path fill="#A7A9AC" d="M148.896,77.761l-17.78-17.78h-23.114l-56.896,56.896c-1.473,1.473-1.473,3.861,0,5.334l17.779,17.781h0.026
	v0.026h23.062v-0.026h0.026l56.896-56.896C150.369,81.623,150.369,79.235,148.896,77.761z M107.112,119.545l-16.702,16.702H70.473
	l-15.812-15.812c-0.491-0.491-0.491-1.287,0-1.778l25.782-25.782c0.491-0.491,1.287-0.491,1.778,0l24.892,24.892
	C107.603,118.258,107.603,119.054,107.112,119.545z"/>
</svg>
