<?xml version="1.0" encoding="utf-8"?>
<!-- Generator: Adobe Illustrator 17.0.0, SVG Export Plug-In . SVG Version: 6.00 Build 0)  -->
<!DOCTYPE svg PUBLIC "-//W3C//DTD SVG 1.1//EN" "http://www.w3.org/Graphics/SVG/1.1/DTD/svg11.dtd">
<svg version="1.1" id="Layer_1" xmlns="http://www.w3.org/2000/svg" xmlns:xlink="http://www.w3.org/1999/xlink" x="0px" y="0px"
	 width="200px" height="200px" viewBox="0 0 200 200" enable-background="new 0 0 200 200" xml:space="preserve">
<g>
	<rect x="28" y="60" fill="#A6A8AB" width="6" height="16"/>
	<polygon fill="#A6A8AB" points="34,92 28,92 28,108 34,108 44,108 44,102 34,102 	"/>
	<polygon fill="#A6A8AB" points="28,44 34,44 34,34 44,34 44,28 28,28 	"/>
	<rect x="124" y="166" fill="#A6A8AB" width="16" height="6"/>
	<polygon fill="#A6A8AB" points="166,166 156,166 156,172 172,172 172,156 166,156 	"/>
	<rect x="166" y="124" fill="#A6A8AB" width="6" height="16"/>
	<polygon fill="#A6A8AB" points="166,92 156,92 156,98 166,98 166,108 172,108 172,92 	"/>
	<rect x="60" y="28" fill="#A6A8AB" width="16" height="6"/>
	<polygon fill="#A6A8AB" points="102,44 108,44 108,28 102,28 92,28 92,34 102,34 	"/>
	<polygon fill="#A6A8AB" points="98,156 92,156 92,172 108,172 108,166 98,166 	"/>
	<polygon fill="#A6A8AB" points="102,60 102,76 102,92 102,98 102,102 98,102 92,102 76,102 60,102 60,108 60,140 92,140 98,140 
		98,124 98,108 108,108 108,98 124,98 140,98 140,92 140,60 108,60 	"/>
</g>
</svg>
