<?xml version="1.0" encoding="UTF-8" standalone="no"?>
<!-- Created with Inkscape (http://www.inkscape.org/) -->

<svg
   xmlns:dc="http://purl.org/dc/elements/1.1/"
   xmlns:cc="http://creativecommons.org/ns#"
   xmlns:rdf="http://www.w3.org/1999/02/22-rdf-syntax-ns#"
   xmlns:svg="http://www.w3.org/2000/svg"
   xmlns="http://www.w3.org/2000/svg"
   xmlns:sodipodi="http://sodipodi.sourceforge.net/DTD/sodipodi-0.dtd"
   xmlns:inkscape="http://www.inkscape.org/namespaces/inkscape"
   width="200"
   height="200"
   id="svg2"
   version="1.1"
   inkscape:version="0.48.4 r9939"
   sodipodi:docname="icon_pan.svg">
  <defs
     id="defs4">
    <inkscape:path-effect
       effect="skeletal"
       id="path-effect3000"
       is_visible="true"
       pattern="M 0,5 C 0,2.24 2.24,0 5,0 7.76,0 10,2.24 10,5 10,7.76 7.76,10 5,10 2.24,10 0,7.76 0,5 z"
       copytype="single_stretched"
       prop_scale="1"
       scale_y_rel="false"
       spacing="0"
       normal_offset="0"
       tang_offset="0"
       prop_units="false"
       vertical_pattern="false"
       fuse_tolerance="0" />
  </defs>
  <sodipodi:namedview
     id="base"
     pagecolor="#ffffff"
     bordercolor="#666666"
     borderopacity="1.0"
     inkscape:pageopacity="0.0"
     inkscape:pageshadow="2"
     inkscape:zoom="0.98994949"
     inkscape:cx="-61.361064"
     inkscape:cy="247.80985"
     inkscape:document-units="px"
     inkscape:current-layer="layer1"
     showgrid="false"
     inkscape:window-width="1920"
     inkscape:window-height="1137"
     inkscape:window-x="1072"
     inkscape:window-y="-8"
     inkscape:window-maximized="1" />
  <metadata
     id="metadata7">
    <rdf:RDF>
      <cc:Work
         rdf:about="">
        <dc:format>image/svg+xml</dc:format>
        <dc:type
           rdf:resource="http://purl.org/dc/dcmitype/StillImage" />
        <dc:title />
      </cc:Work>
    </rdf:RDF>
  </metadata>
  <g
     inkscape:label="Layer 1"
     inkscape:groupmode="layer"
     id="layer1"
     transform="translate(0,-852.36218)">
    <path
       style="fill:none;stroke:#a7a9ac;stroke-width:3.47298527000000010;stroke-linecap:butt;stroke-linejoin:round;stroke-miterlimit:4;stroke-opacity:1;stroke-dasharray:none"
       d="m 66.711584,1004.1102 c -2.454657,-2.4547 -0.45295,-19.77712 -2.046477,-24.55771 -0.826979,-2.48093 -1.320635,-6.73421 -2.33883,-8.77059 -1.865699,-3.73141 -2.730719,-8.19217 -4.092951,-12.27887 -1.782478,-5.34743 -4.070211,-10.60269 -5.847074,-15.93328 -1.122021,-2.54997 -1.306572,-5.57263 -1.607946,-9.20915 -0.301374,-3.63651 -0.562835,-8.66276 -0.438531,-11.40179 0.124304,-2.73903 0.673953,-6.28854 1.461768,-7.16267 0.651257,-0.65125 1.518238,-1.0797 2.046477,-1.60794 0.93585,-0.93585 4.681728,0.73495 5.262368,1.31559 0.461224,0.46122 0.666915,0.95927 1.169415,1.46177 0.465273,0.46527 0.820611,1.58477 1.023237,2.19265 0.886792,2.66038 2.385706,5.3037 3.069714,8.03973 1.914685,5.13816 2.153262,10.1762 4.970012,15.49475 1.33958,1.92428 2.047152,6.65071 2.485008,6.43178 0.893183,-0.44659 -0.292353,-9.64873 -0.292353,-11.10944 -1.656874,-20.23494 -4.53854,-27.44547 -0.146178,-39.02923 0.689145,-1.37829 1.372371,-1.95707 2.33883,-2.92354 0.280464,-0.28046 0.994284,-0.2634 1.315593,-0.5847 0.88911,-0.38208 5.185766,-0.15957 5.700897,0.29235 1.586749,1.58675 4.436272,2.34555 5.408546,5.26237 1.779025,11.48842 0.77293,21.95273 0.877059,33.4745 0,3.50052 0.438531,7.08939 0.438531,10.52474 0,0.73088 0,1.46176 0,2.19265 0,0.14618 0.146178,0.43853 0,0.43853 -0.32686,0 0.292353,-0.58471 0.438531,-0.87706 0.450909,-0.90182 0.765402,-2.18455 1.02324,-3.21589 0.904032,-3.61614 1.607943,-7.78828 1.607943,-11.54798 0.65253,-9.42075 1.60686,-18.08571 4.239131,-26.31183 0.852986,-2.55896 2.061706,-5.86231 3.65442,-7.45502 1.525089,-1.52509 2.118166,-2.00923 3.946776,-2.92354 1.28712,0.0388 2.85913,-0.70637 4.09295,-0.14618 7.169,3.5845 6.29862,14.24727 5.11619,21.34183 -1.46692,5.44206 -2.5107,11.46237 -3.36207,16.51798 -0.34911,2.09467 -1.31559,4.30129 -1.31559,6.43178 0,2.59445 -1.16941,5.19332 -1.16941,7.74738 0,0.93055 -0.29236,1.86782 -0.29236,2.77736 0,0.53598 0.53599,1.60794 0,1.60794 -0.0137,0 0.35801,-1.00836 0.43853,-1.16941 0.47985,-0.95968 0.76108,-2.31344 1.02324,-3.36207 0.64506,-2.58023 0.81326,-5.29951 1.46177,-7.89355 2.12437,-8.49747 4.12736,-19.62211 9.64767,-25.14242 1.0138,-1.01379 2.84786,-1.13157 4.09296,-1.75412 0.96365,-0.48183 3.2659,-0.48662 4.23913,0 0.90395,0.45197 1.91192,1.03486 2.485,1.60794 4.43534,4.43534 -0.5884,19.74866 -1.9003,24.99625 -0.4443,1.77723 -1.39277,3.45563 -1.75412,5.26236 -0.63341,3.16705 -1.55827,6.37926 -2.33883,9.5015 -0.18119,0.72477 -1.97407,6.50419 -1.75412,6.72414 1.33543,1.33543 3.72136,-1.8962 4.82383,-2.63119 0.65818,-0.43878 1.16561,-1.23679 1.60795,-1.90029 3.37679,-5.06518 11.84678,-14.37191 18.56446,-12.13268 1.07789,0.35929 2.64918,1.07721 3.06972,2.33883 2.78147,8.34442 -5.86466,25.30618 -11.84033,31.28186 -5.50194,6.63597 -10.84946,12.3466 -16.51799,17.97973 -2.09424,2.09427 -3.58767,5.27506 -4.82383,7.74735 -2.44365,4.3395 -8.43913,9.2897 -13.3021,8.6245 -4.571285,-0.019 -9.992907,-0.7168 -16.737248,-0.1462 -9.468246,0.1287 -14.381924,-1.1951 -19.222258,-6.4318 z"
       id="path3002"
       inkscape:connector-curvature="0"
       sodipodi:nodetypes="csssczzcssssccsccsccccsssssccsccccsssscsssssssssssssscccccc" />
  </g>
</svg>
