<?xml version="1.0" encoding="utf-8"?>
<!-- Generator: Adobe Illustrator 17.0.0, SVG Export Plug-In . SVG Version: 6.00 Build 0)  -->
<!DOCTYPE svg PUBLIC "-//W3C//DTD SVG 1.1//EN" "http://www.w3.org/Graphics/SVG/1.1/DTD/svg11.dtd">
<svg version="1.1" id="Layer_1" xmlns="http://www.w3.org/2000/svg" xmlns:xlink="http://www.w3.org/1999/xlink" x="0px" y="0px"
	 width="200px" height="200px" viewBox="0 0 200 200" enable-background="new 0 0 200 200" xml:space="preserve">
<g>
	<rect x="45" y="69.444" fill="#A6A8AB" width="4.583" height="12.222"/>
	<polygon fill="#A6A8AB" points="49.583,93.889 45,93.889 45,106.111 49.583,106.111 57.222,106.111 57.222,101.528 49.583,101.528 
			"/>
	<polygon fill="#A6A8AB" points="45,57.222 49.583,57.222 49.583,49.583 57.222,49.583 57.222,45 45,45 	"/>
	<rect x="118.333" y="150.417" fill="#A6A8AB" width="12.222" height="4.583"/>
	<polygon fill="#A6A8AB" points="150.417,150.417 142.778,150.417 142.778,155 155,155 155,142.778 150.417,142.778 	"/>
	<rect x="150.417" y="118.333" fill="#A6A8AB" width="4.583" height="12.222"/>
	<polygon fill="#A6A8AB" points="150.417,93.889 142.778,93.889 142.778,98.472 150.417,98.472 150.417,106.111 155,106.111 
		155,93.889 	"/>
	<rect x="69.444" y="45" fill="#A6A8AB" width="12.222" height="4.583"/>
	<polygon fill="#A6A8AB" points="101.528,57.222 106.111,57.222 106.111,45 101.528,45 93.889,45 93.889,49.583 101.528,49.583 	"/>
	<polygon fill="#A6A8AB" points="98.472,142.778 93.889,142.778 93.889,155 106.111,155 106.111,150.417 98.472,150.417 	"/>
	<polygon fill="#A6A8AB" points="101.528,69.444 101.528,81.667 101.528,93.889 101.528,98.472 101.528,101.528 98.472,101.528 
		93.889,101.528 81.667,101.528 69.444,101.528 69.444,106.111 69.444,130.556 93.889,130.556 98.472,130.556 98.472,118.333 
		98.472,106.111 106.111,106.111 106.111,98.472 118.333,98.472 130.556,98.472 130.556,93.889 130.556,69.444 106.111,69.444 	"/>
</g>
</svg>
