<?xml version="1.0" encoding="utf-8"?>
<!-- Generator: Adobe Illustrator 17.0.0, SVG Export Plug-In . SVG Version: 6.00 Build 0)  -->
<!DOCTYPE svg PUBLIC "-//W3C//DTD SVG 1.1//EN" "http://www.w3.org/Graphics/SVG/1.1/DTD/svg11.dtd">
<svg version="1.1" id="Layer_1" xmlns="http://www.w3.org/2000/svg" xmlns:xlink="http://www.w3.org/1999/xlink" x="0px" y="0px"
	 width="200px" height="200px" viewBox="0 0 200 200" enable-background="new 0 0 200 200" xml:space="preserve">
<g>
	<rect x="69.945" y="44.5" fill="#A6A8AB" width="12.222" height="4.584"/>
	<polygon fill="#A6A8AB" points="102.028,56.722 106.611,56.722 106.611,49.084 106.611,44.5 94.389,44.5 94.389,49.084 
		102.028,49.084 	"/>
	<rect x="45.5" y="68.945" fill="#A6A8AB" width="4.584" height="12.222"/>
	<polygon fill="#A6A8AB" points="50.084,93.389 45.5,93.389 45.5,105.611 50.084,105.611 57.722,105.611 57.722,101.028 
		50.084,101.028 	"/>
	<polygon fill="#A6A8AB" points="45.5,56.722 50.084,56.722 50.084,49.084 57.722,49.084 57.722,44.5 45.5,44.5 	"/>
	<rect x="118.834" y="149.916" fill="#A6A8AB" width="12.222" height="4.584"/>
	<polygon fill="#A6A8AB" points="98.972,142.278 94.389,142.278 94.389,154.5 106.611,154.5 106.611,149.916 98.972,149.916 	"/>
	<polygon fill="#A6A8AB" points="150.916,149.916 143.278,149.916 143.278,154.5 155.5,154.5 155.5,142.278 150.916,142.278 	"/>
	<rect x="150.916" y="117.834" fill="#A6A8AB" width="4.584" height="12.222"/>
	<polygon fill="#A6A8AB" points="150.916,93.389 143.278,93.389 143.278,97.972 150.916,97.972 150.916,105.611 155.5,105.611 
		155.5,93.389 	"/>
	<rect x="69.945" y="68.945" fill="#A6A8AB" width="61.111" height="61.111"/>
</g>
</svg>
