<?xml version="1.0" encoding="utf-8"?>
<!-- Generator: Adobe Illustrator 17.0.0, SVG Export Plug-In . SVG Version: 6.00 Build 0)  -->
<!DOCTYPE svg PUBLIC "-//W3C//DTD SVG 1.1//EN" "http://www.w3.org/Graphics/SVG/1.1/DTD/svg11.dtd">
<svg version="1.1" id="Layer_1" xmlns="http://www.w3.org/2000/svg" xmlns:xlink="http://www.w3.org/1999/xlink" x="0px" y="0px"
	 width="200px" height="200px" viewBox="0 0 200 200" enable-background="new 0 0 200 200" xml:space="preserve">
<path fill="#999999" d="M144,160c0,1.105-0.895,2-2,2H58c-1.105,0-2-0.895-2-2V76h-8v89c0,2.762,2.238,5,5,5h94c2.762,0,5-2.238,5-5
	V76h-8L144,160L144,160z"/>
<rect x="96" y="76" fill="#999999" width="8" height="72"/>
<rect x="72" y="76" fill="#999999" width="8" height="72"/>
<rect x="120" y="76" fill="#999999" width="8" height="72"/>
<path fill="#999999" d="M157,44h-37V33c0-1.657-1.343-3-3-3H83c-1.657,0-3,1.343-3,3v11H43c-1.657,0-3,1.343-3,3v18
	c0,1.657,1.343,3,3,3h114c1.657,0,3-1.343,3-3v-18C160,45.343,158.657,44,157,44z M86,37c0-0.552,0.448-1,1-1h26
	c0.552,0,1,0.448,1,1v7H86V37z M154,61c0,0.552-0.448,1-1,1H47c-0.552,0-1-0.448-1-1V51c0-0.552,0.448-1,1-1h106
	c0.552,0,1,0.448,1,1L154,61L154,61z"/>
</svg>
