<?xml version="1.0" encoding="utf-8"?>
<!-- Generator: Adobe Illustrator 17.0.0, SVG Export Plug-In . SVG Version: 6.00 Build 0)  -->
<!DOCTYPE svg PUBLIC "-//W3C//DTD SVG 1.1//EN" "http://www.w3.org/Graphics/SVG/1.1/DTD/svg11.dtd">
<svg version="1.1" id="Layer_1" xmlns="http://www.w3.org/2000/svg" xmlns:xlink="http://www.w3.org/1999/xlink" x="0px" y="0px"
	 width="20px" height="20px" viewBox="0 0 20 20" enable-background="new 0 0 20 20" xml:space="preserve">
<g id="Shape_200_">
	<path fill="#FFFFFF" d="M9.988,19.625c-2.876,0-5.57-1.262-7.393-3.463l1.777-1.85c-0.001,0.002,0,0.003,0.003,0.003
		c0.01,0,0.036-0.008,0.053-0.008c1.327,1.75,3.353,2.745,5.559,2.745c3.883,0,7.042-3.158,7.042-7.041S13.871,2.97,9.988,2.97
		c-1.796,0-3.493,0.667-4.778,1.878L4.931,5.111l2.045,2.072C7.12,7.315,7.16,7.506,7.087,7.663c-0.076,0.208-0.269,0.29-0.421,0.29
		H0.831c-0.243,0-0.456-0.213-0.456-0.456V1.661c0-0.185,0.107-0.35,0.268-0.412c0.073-0.033,0.128-0.044,0.186-0.044
		c0.115,0,0.225,0.048,0.301,0.132L3.083,3.29l0.265-0.249c1.808-1.694,4.228-2.667,6.641-2.667c5.313,0,9.637,4.323,9.637,9.637
		C19.625,15.313,15.302,19.625,9.988,19.625z"/>
	<path d="M9.988,0.75c5.107,0,9.262,4.155,9.262,9.262c0,5.094-4.155,9.238-9.262,9.238c-2.658,0-5.154-1.122-6.906-3.097
		l1.29-1.307c1.395,1.645,3.421,2.581,5.617,2.581c4.09,0,7.417-3.327,7.417-7.417c0-4.09-3.327-7.417-7.417-7.417
		c-1.892,0-3.68,0.703-5.036,1.98L4.394,5.102l0.539,0.546L6.71,7.447l0.022,0.045l0.015,0.014L6.738,7.527L6.727,7.559
		c-0.006,0.006-0.031,0.019-0.06,0.019H0.83c-0.041,0-0.08-0.051-0.08-0.08V1.661c0-0.038,0.02-0.059,0.027-0.061l0.03-0.01
		l0.022-0.01l0.048,0.035l1.684,1.684l0.513,0.513l0.53-0.497C5.343,1.685,7.67,0.75,9.988,0.75 M9.988,0
		C7.428,0,4.937,1.038,3.091,2.768L1.407,1.084C1.255,0.917,1.042,0.83,0.829,0.83c-0.11,0-0.22,0.023-0.322,0.07
		C0.208,1.015,0,1.315,0,1.661v5.836c0,0.438,0.369,0.83,0.83,0.83h5.836c0.323,0,0.646-0.185,0.761-0.507
		c0.138-0.3,0.069-0.669-0.185-0.9L5.467,5.121c1.2-1.13,2.814-1.776,4.521-1.776c3.668,0,6.667,2.999,6.667,6.667
		c0,3.668-2.999,6.667-6.667,6.667c-2.076,0-3.991-0.923-5.26-2.584c-0.069-0.092-0.185-0.161-0.3-0.161
		c-0.115,0-0.231,0.046-0.323,0.115L2.33,15.848c-0.138,0.138-0.161,0.392-0.023,0.554C4.198,18.685,7.013,20,9.988,20
		C15.502,20,20,15.525,20,10.012C20,4.498,15.502,0,9.988,0L9.988,0z"/>
</g>
</svg>
